<svg width="24" height="25" viewBox="0 0 24 25" fill="none" xmlns="http://www.w3.org/2000/svg">
<g clip-path="url(#clip0_145_1693)">
<path d="M17.5103 22.3152H12.5103V3.13817L16.8103 7.43817C16.9989 7.62032 17.2515 7.72112 17.5137 7.71884C17.7759 7.71656 18.0267 7.61139 18.2121 7.42598C18.3975 7.24058 18.5027 6.98976 18.5049 6.72757C18.5072 6.46537 18.4064 6.21277 18.2243 6.02417L13.2783 1.07817C13.0461 0.845953 12.7705 0.661745 12.4671 0.536067C12.1638 0.410389 11.8386 0.345703 11.5103 0.345703C11.1819 0.345703 10.8568 0.410389 10.5534 0.536067C10.25 0.661745 9.97442 0.845953 9.74226 1.07817L4.79226 6.02817C4.60476 6.2162 4.49963 6.47103 4.5 6.73658C4.50038 7.00213 4.60623 7.25666 4.79426 7.44417C4.9823 7.63167 5.23713 7.7368 5.50268 7.73643C5.76823 7.73605 6.02276 7.6302 6.21026 7.44217L10.5103 3.14217V22.3152H5.51026C5.24505 22.3152 4.99069 22.4205 4.80316 22.608C4.61562 22.7956 4.51026 23.0499 4.51026 23.3152C4.51026 23.5804 4.61562 23.8347 4.80316 24.0223C4.99069 24.2098 5.24505 24.3152 5.51026 24.3152H17.5103C17.7755 24.3152 18.0298 24.2098 18.2174 24.0223C18.4049 23.8347 18.5103 23.5804 18.5103 23.3152C18.5103 23.0499 18.4049 22.7956 18.2174 22.608C18.0298 22.4205 17.7755 22.3152 17.5103 22.3152Z" fill="#C497EA"/>
</g>
<defs>
<clipPath id="clip0_145_1693">
<rect width="24" height="24" fill="white" transform="translate(0 0.345703)"/>
</clipPath>
</defs>
</svg>
