<svg width="35" height="36" viewBox="0 0 35 36" fill="none" xmlns="http://www.w3.org/2000/svg">
<g id="&#240;&#159;&#166;&#134; icon &#34;diagonal arrow right up&#34;">
<path id="Vector" d="M26.2497 10.9858C26.2497 10.5991 26.096 10.2281 25.8225 9.95464C25.549 9.68115 25.1781 9.52751 24.7913 9.52751L13.1247 9.45459C12.7379 9.45459 12.367 9.60824 12.0935 9.88173C11.82 10.1552 11.6663 10.5261 11.6663 10.9129C11.6663 11.2997 11.82 11.6706 12.0935 11.9441C12.367 12.2176 12.7379 12.3713 13.1247 12.3713H21.233L9.17258 24.4608C9.0359 24.5964 8.9274 24.7577 8.85337 24.9354C8.77933 25.1131 8.74121 25.3037 8.74121 25.4963C8.74121 25.6888 8.77933 25.8794 8.85337 26.0571C8.9274 26.2348 9.0359 26.3961 9.17258 26.5317C9.30815 26.6684 9.46945 26.7769 9.64716 26.8509C9.82487 26.9249 10.0155 26.963 10.208 26.963C10.4005 26.963 10.5911 26.9249 10.7688 26.8509C10.9466 26.7769 11.1078 26.6684 11.2434 26.5317L23.333 14.4421V22.5796C23.333 22.9664 23.4866 23.3373 23.7601 23.6108C24.0336 23.8843 24.4046 24.0379 24.7913 24.0379C25.1781 24.0379 25.549 23.8843 25.8225 23.6108C26.096 23.3373 26.2497 22.9664 26.2497 22.5796V10.9858Z" fill="#E52573"/>
</g>
</svg>
