<svg width="456" height="443" viewBox="0 0 456 443" fill="none" xmlns="http://www.w3.org/2000/svg">
<path d="M331.496 332.263C324.631 322.835 318.655 314.642 312.692 306.42C310.97 304.671 309.602 302.63 308.652 300.392C308.462 297.753 308.684 295.083 309.308 292.468C312.384 292.619 315.431 293.004 318.42 293.619C319.878 294.445 321.063 295.633 321.857 297.063C330.777 308.246 339.791 319.343 348.402 330.724C353.985 338.133 352.979 344.87 344.71 347.921C319.395 357.231 293.831 365.796 268.318 374.485C266.042 375.26 263.482 374.82 259.17 375.04C263.7 367.604 269.828 364.959 275.748 361.987C281.667 359.016 287.887 355.633 296.565 351.16C290.578 350.631 287.397 350.322 284.198 350.092C273.95 349.4 263.498 349.419 253.419 347.861C219.492 342.649 197.135 322.688 181.953 295.236C141.623 222.395 145.152 147.757 184.687 72.0065C185.979 69.5029 187.938 67.2376 191.064 62.5437C191.586 67.1655 192.402 69.2516 191.927 71.087C190.58 75.4788 188.974 79.8066 187.118 84.0478C174.082 115.598 167.462 148.957 167.623 182.291C167.69 226.481 179.577 266.862 208.142 301.23C225.127 321.671 247.486 332.088 275.566 332.124L331.496 332.263Z" fill="#E9CDFF"/>
</svg>
