<svg width="589" height="557" viewBox="0 0 589 557" fill="none" xmlns="http://www.w3.org/2000/svg">
<path d="M48.0593 341.844C39.7716 329.008 35.8874 313.33 36.6123 295.633C38.8569 258.139 72.0146 217.025 122.277 189.239C161.511 167.572 199.423 156.173 236.302 149.775C309.353 137.092 373.379 138.213 424.768 158.417C431.914 160.647 439.662 162.188 447.932 163.022C473.872 167.034 498.661 172.309 515.532 186.03C539.337 205.36 552.871 230.965 546.048 268.33C540.937 296.247 524.604 323.925 491.814 350.831C471.621 367.516 449.521 378.766 426.937 387.807C396.314 400.034 367.415 406.267 339.362 409.744C283.717 416.628 234.341 413.702 188.179 405.851C144.779 398.51 105.395 386.729 75.2436 365.274C65.3007 358.209 57.0694 349.69 48.0593 341.844ZM349.507 152.815C347.33 152.481 345.273 151.987 343.001 151.847C304.653 149.223 262.264 152.878 217.482 162.673C192.323 168.299 166.504 175.761 140.533 189.414C125.306 197.53 109.117 206.651 95.7364 217.472C58.8972 247.315 46.6359 276.649 51.356 303.079C56.2327 330.393 74.5057 348.428 99.1056 361.295C154.509 390.272 224.725 400.628 304.719 398.588C330.504 398.068 358.059 394.388 386.709 387.639C408.599 382.496 430.67 375.035 453.102 362.739C489.15 342.997 514.351 318.07 523.486 288.634C527.85 274.259 529.451 260.649 528.228 248.297C525.614 217.122 506.068 195.033 473.48 186.428C448.138 179.955 421.41 175.141 393.433 172.008C361.405 167.958 327.918 165.921 295.205 162.808C290.235 162.317 285.814 160.957 281.091 159.961C281.985 158.725 282.877 157.489 283.781 156.271C306.73 153.236 326.23 156.308 349.507 152.815Z" fill="#E9CDFF"/>
</svg>
