<svg width="867" height="869" viewBox="0 0 867 869" fill="none" xmlns="http://www.w3.org/2000/svg">
<path d="M565.002 611.053C564.745 610.429 564.632 609.756 564.669 609.083C564.707 608.409 564.895 607.753 565.219 607.162C568.519 601.123 567.435 596.326 561.919 592.474C559.949 591.086 559.259 589.519 558.668 586.84C557.545 581.747 556.344 576.585 555.191 571.591L555.014 570.843C553.497 564.322 551.931 557.574 550.522 550.935C550.067 548.544 549.738 546.13 549.537 543.704L547.567 543.911L549.537 543.596C549.31 541.32 549.074 538.976 548.631 536.632C548.631 536.405 548.562 536.169 548.542 535.912C548.697 535.24 548.713 534.543 548.591 533.864C548.591 533.44 548.69 533.007 548.739 532.573V532.465C548.999 530.79 549.075 529.093 548.966 527.402C548.804 524.625 549.017 521.838 549.596 519.117C550.479 513.784 553.031 508.87 556.885 505.08C601.538 461.235 620.343 406.959 612.787 343.747C608.108 304.542 592.554 270.045 566.569 241.213C524.635 194.689 472.427 173.894 411.383 179.391C397.278 180.736 383.408 183.905 370.118 188.818H370.04C310.769 212.784 272.913 256.176 257.536 317.791C247.804 356.79 250.572 395.699 265.761 433.437C288.201 489.171 328.194 526.83 384.628 545.359C386.868 546.145 389.151 546.803 391.465 547.329C403.285 549.762 412.929 556.904 421.105 569.168C427.725 579.107 430.837 590.741 433.231 600.867C433.655 602.68 434.049 604.502 434.443 606.374C434.599 607.256 434.701 608.148 434.748 609.043C434.541 609.329 434.325 609.634 434.128 609.969C431.488 614.569 432 617.298 436.147 620.805C436.267 620.913 436.391 621.015 436.521 621.11C436.763 621.942 436.94 622.793 437.053 623.652C437.309 626.003 437.572 628.353 437.841 630.705C438.491 636.3 439.151 642.082 439.585 647.795C439.825 652.568 441.784 657.092 445.101 660.532C457.31 673.498 472.759 682.969 489.852 687.966C491.153 688.34 492.443 688.616 493.586 688.862L494.571 689.079C497.239 689.676 499.964 689.983 502.697 689.995C506.276 690.013 509.83 689.403 513.198 688.193C516.503 686.97 519.58 685.202 522.3 682.962C529.383 677.18 535.539 671.742 541.124 666.334C546.05 661.596 551.133 656.109 557.22 649.066C558.829 647.094 560.25 644.977 561.466 642.742C562.067 641.708 562.687 640.644 563.318 639.678C563.68 639.07 564.132 638.518 564.658 638.043C569.169 634.822 570.45 631.374 569.08 626.163C567.898 621.583 566.49 616.244 565.002 611.053ZM499.988 572.281C488.672 576.758 477.023 580.344 465.147 583.008C460.697 583.909 456.203 584.567 451.681 584.978C463.768 579.639 484.08 574.33 499.998 572.281H499.988ZM521.66 574.487C522.434 574.112 523.23 573.783 524.044 573.502C525.934 572.794 527.936 572.427 529.954 572.419C532.181 572.452 534.389 572.838 536.495 573.561C538.99 574.347 541.369 575.464 543.567 576.881C544.503 577.502 544.552 577.541 543.853 578.91C542.98 580.417 541.715 581.659 540.192 582.504C538.669 583.348 536.945 583.765 535.204 583.707C522.607 582.646 509.93 583.055 497.427 584.929C505.722 581.935 513.831 578.448 521.709 574.487H521.66ZM443.151 560.135C458.149 553.628 473.98 549.238 490.187 547.093C478.93 551.412 467.416 555.03 455.71 557.929C451.558 558.878 447.359 559.615 443.131 560.135H443.151ZM477.913 311.3C478.607 309.712 479.526 308.231 480.642 306.906C481.114 306.32 481.724 305.86 482.415 305.567C482.61 305.492 482.817 305.452 483.026 305.448H483.144C483.6 305.561 484.026 305.771 484.392 306.066C484.758 306.361 485.055 306.731 485.262 307.153C486.258 308.711 486.984 310.426 487.409 312.226C490.02 323.209 483.607 336.941 473.185 343.639C472.446 333.247 474.535 318.658 477.894 311.3H477.913ZM382.205 358.464C377.606 356.702 373.347 354.156 369.616 350.938C366.86 348.475 364.4 345.698 362.287 342.664C361.589 341.664 361.131 340.515 360.952 339.309C360.772 338.101 360.876 336.87 361.253 335.709C361.366 335.146 361.602 334.615 361.942 334.152C362.282 333.689 362.72 333.306 363.223 333.03H363.302C363.825 332.94 364.36 332.968 364.871 333.109C365.381 333.251 365.855 333.503 366.257 333.848C368.226 335.295 369.98 337.013 371.468 338.95C376.046 344.854 379.669 351.438 382.205 358.464ZM399.779 374.925C420.583 377.456 441.545 373.398 463.679 362.562L463.847 363.616C464.457 367.349 465.039 370.886 465.689 374.452C469.225 393.503 475.539 411.539 481.312 426.66C494.759 462.571 512.254 496.832 533.461 528.781C533.727 529.185 534.003 529.598 534.278 530.051C528.417 533.007 522.152 534.238 514.134 534.11C491.832 533.795 468.821 538.483 441.752 548.797C438.852 549.868 436.023 551.122 433.28 552.55C432.059 537.666 429.547 523.205 427.065 509.621C425.673 502.056 424.297 494.504 422.937 486.965L422.553 484.827C418.367 461.718 414.042 437.811 409.432 414.238C407.59 404.841 405.127 395.522 402.734 386.391C401.709 382.44 400.714 378.638 399.779 374.925ZM472.348 564.538C487.961 559.455 504.076 553.653 520.241 547.28L520.763 547.083C525.689 545.3 530.289 545.763 535.766 548.59C537.647 549.575 537.943 550.196 537.953 550.196C537.962 550.196 537.864 550.875 536.495 552.225C531.707 556.963 529.048 559.583 519.276 560.44C518.66 560.386 518.041 560.386 517.424 560.44H517.01C486.789 561.504 460.99 567.612 438.206 579.097L436.433 575.098L436.324 574.852L435.132 572.064C447.308 571.887 458.921 568.912 472.348 564.538ZM517.877 594.041C497.467 602.433 472.427 610.925 446.854 612.343L447.268 612.097C447.859 611.782 448.431 611.437 449.061 611.063H449.15L450.42 610.324C460.724 604.63 471.973 601.458 480.622 599.429C492.822 596.354 505.307 594.547 517.877 594.041ZM459.532 631.345C467.117 627.267 475.352 624.883 483.114 622.903C496.484 619.513 510.274 618.087 524.053 618.667C511.92 623.118 499.516 626.796 486.917 629.68C478.475 631.65 468.447 633.532 458.045 633.059L456.725 632.97C457.69 632.409 458.636 631.857 459.572 631.345H459.532ZM550.68 606.6C549.517 607.349 548.266 608.068 547.045 608.757L546.68 608.964L545.459 609.664C544.329 610.27 543.008 610.411 541.775 610.058C533.395 608.511 524.892 607.733 516.37 607.733C515.336 607.733 514.311 607.733 513.287 607.733C521.945 604.438 530.387 600.602 538.563 596.247C539.125 595.952 539.548 595.705 539.933 595.469L540.484 595.597C543.845 596.259 547.141 597.216 550.335 598.454C550.689 599.99 551.211 602.128 551.743 603.704C551.927 604.259 552.074 604.825 552.187 605.398C551.708 605.827 551.205 606.228 550.68 606.6ZM538.987 517.226C537.736 515.256 536.544 513.365 535.382 511.562C522.812 492.117 511.336 470.189 500.294 444.578C493.479 428.98 487.511 413.025 482.415 396.783C478.311 383.782 475.493 370.41 474.003 356.859V356.553L474.889 355.903C476.485 354.731 478.288 353.411 480.021 352.071C485.687 347.89 490.418 342.571 493.911 336.458C499.742 325.839 500.599 315.319 496.462 305.192C495.799 303.481 494.925 301.86 493.861 300.366C492.713 298.692 491.207 297.293 489.452 296.272C487.698 295.249 485.739 294.629 483.715 294.455C481.813 294.355 479.912 294.682 478.153 295.413C476.393 296.145 474.82 297.262 473.55 298.681C470.746 301.797 468.536 305.398 467.028 309.31C464.172 316.205 462.704 324.174 462.379 334.32C462.261 338.379 462.29 342.358 462.32 346.565V346.663C462.32 347.963 462.32 349.283 462.32 350.603C455.742 354.759 448.608 357.963 441.131 360.119C426.07 364.542 413.697 365.832 402.212 364.168L401.158 364C400.223 363.828 399.279 363.707 398.331 363.636C396.518 363.537 395.582 363.074 394.774 360.582C391.899 351.494 387.636 342.904 382.136 335.118C379.597 331.449 376.549 328.159 373.084 325.347C368.799 321.997 363.725 321.062 359.184 322.795C354.643 324.529 351.304 328.863 350.319 334.488C349.49 339.608 350.604 344.853 353.441 349.195C357.135 355.144 362.294 360.044 368.424 363.429C373.824 366.473 379.445 369.107 385.239 371.309C386.05 371.518 386.786 371.949 387.366 372.552C387.945 373.155 388.345 373.909 388.519 374.727C393.73 392.181 397.94 409.918 401.128 427.852C405.351 451.151 409.597 474.465 413.865 497.791L416.288 511.05C418.633 523.855 421.213 538.552 422.474 553.407C414.229 544.827 404.96 539.38 394.203 536.769C379.224 532.996 364.883 527.038 351.639 519.088C318.792 499.57 292.953 470.171 277.814 435.089C262.673 400.008 259.007 361.04 267.338 323.751C279.946 267.75 312.276 227.284 363.44 203.495C367.557 201.584 371.783 199.831 375.989 198.294C392.944 192.136 410.85 189.008 428.887 189.054C452.066 189.095 474.998 193.818 496.307 202.938C517.617 212.058 536.864 225.388 552.896 242.129C578.142 268.189 594.837 301.33 600.75 337.128C611.152 399.856 593.5 454.103 548.286 498.372C544.339 502.167 541.519 506.981 540.139 512.281C539.745 513.768 539.342 515.423 538.987 517.177V517.226ZM456.242 595.804C453.454 596.937 450.696 598.148 447.84 599.399C446.697 599.902 445.534 600.384 444.352 600.916L443.161 595.942C447.517 596.376 451.909 596.317 456.252 595.765L456.242 595.804ZM452.302 623.07C450.952 623.819 449.603 624.597 448.214 625.405L448.165 625.001L448.096 624.44C448.046 624.046 447.997 623.661 447.958 623.277C449.383 623.205 450.824 623.12 452.282 623.021L452.302 623.07ZM464.123 644.003C466.595 643.885 469.048 643.688 471.491 643.422C466.122 644.407 460.655 645.746 455.681 648.948C454.202 649.791 452.952 650.981 452.036 652.415C451.605 651.823 451.291 651.154 451.11 650.445C450.657 648.15 450.411 645.805 450.125 643.136C454.734 644.06 459.448 644.335 464.132 643.954L464.123 644.003ZM469.787 662.985C484.05 661.921 499.25 658.926 517.641 653.568C525.324 651.332 533.077 648.879 540.593 646.505L541.272 646.298L546.68 644.584L545.567 645.796L545.144 646.268C541.124 650.652 536.968 655.193 532.692 659.389C528.102 663.881 523.088 668.156 518.202 672.323L516.232 674.008C510.686 678.746 503.998 680.214 496.334 678.371C494.167 677.849 492.069 677.327 490.039 676.687C480.692 673.678 471.937 669.072 464.162 663.074C466.041 663.126 467.922 663.079 469.796 662.936L469.787 662.985ZM554.324 629.857C546.523 631.177 538.563 632.428 530.86 633.64L530.21 633.748C526.159 634.405 522.107 635.046 518.054 635.669C514.436 636.253 510.824 636.825 507.219 637.383L506.293 637.531C500.777 638.398 495.162 639.275 489.547 640.21C494.127 639.156 498.619 637.974 502.993 636.792C516.785 632.978 530.312 628.266 543.489 622.686C543.951 622.487 544.444 622.373 544.947 622.351H545.045C550.226 624.124 554.019 626.291 556.866 629.247C556.043 629.541 555.191 629.746 554.324 629.857Z" fill="#4d5358"/>
</svg>
