<svg width="922" height="915" viewBox="0 0 922 915" fill="none" xmlns="http://www.w3.org/2000/svg">
<path d="M586.045 567.718C640.398 563.335 689.287 558.586 737.298 545.802C752.406 541.811 766.796 535.742 780 527.795C788.274 522.922 794.482 515.511 797.565 506.83C800.469 497.813 800.469 488.196 797.565 479.18C795.083 470.26 790.553 461.952 784.293 454.836C777.882 447.829 770.014 442.12 761.166 438.052C755.975 435.586 750.686 433.432 745.066 431.148C742.49 430.108 739.835 429.03 737.259 427.916C736.329 427.525 735.555 426.87 735.047 426.043C734.54 425.217 734.323 424.262 734.429 423.313C734.526 422.346 734.605 421.487 734.682 420.52C734.809 418.619 735.063 416.728 735.443 414.857C742.763 383.044 731.97 364.782 699.378 353.787C686.293 349.315 672.477 347.01 658.549 346.975C649.64 346.978 640.76 347.934 632.083 349.824C615.534 353.477 599.452 358.262 582.433 363.375C574.978 365.622 567.27 367.923 559.463 370.15C559.007 370.28 558.533 370.347 558.058 370.351C556.851 370.35 555.689 369.927 554.799 369.165L554.35 368.818C552.751 367.628 551.262 366.315 549.9 364.892C534.579 348.071 514.263 338.374 487.798 335.251C481.506 334.503 475.17 334.131 468.828 334.137C450.794 334.302 432.884 336.936 415.664 341.953C379.825 351.696 347.122 369.597 320.482 394.056C315.35 398.787 308.909 403.626 299.971 403.626C295.991 403.556 292.069 402.736 288.437 401.216C277.718 397.24 266.256 395.322 254.732 395.573C246.69 395.643 238.659 396.174 230.686 397.162C192.805 401.434 161.774 415.278 138.432 438.289C128.147 448.443 122.545 459.419 121.823 470.925C121.101 482.431 125.258 493.899 134.236 504.985C142.254 514.637 151.674 523.194 162.223 530.406C190.522 550.149 225.086 563.9 267.886 572.411C297.161 578.219 328.387 580.922 366.287 580.922C393.611 580.922 421.481 579.497 448.452 578.128L462.914 577.415C491.584 575.991 520.722 573.434 548.905 570.969C561.063 569.837 573.749 568.722 586.045 567.718ZM549.197 399.7C549.918 399.702 550.631 399.854 551.281 400.146C551.932 400.436 552.505 400.86 552.959 401.385C553.414 401.909 553.737 402.522 553.906 403.178C554.076 403.835 554.087 404.519 553.94 405.179C551.11 417.671 546.133 427.606 538.463 435.532C530.791 443.233 521.262 449.106 510.671 452.662C510.109 452.858 509.514 452.956 508.915 452.954C507.655 452.96 506.443 452.5 505.542 451.677C504.639 450.854 504.12 449.732 504.094 448.553C503.587 430.291 520.098 411.681 547.206 400.138C547.826 399.849 548.504 399.687 549.197 399.664V399.7ZM300.927 434.399C301.981 432.391 303.054 430.345 304.05 428.245C304.322 427.665 304.722 427.146 305.222 426.721C305.723 426.296 306.314 425.975 306.958 425.78C307.44 425.62 307.949 425.539 308.461 425.541C309.304 425.54 310.132 425.748 310.861 426.145C321.692 431.934 327.254 440.024 327.919 450.836C327.892 453.917 327.148 456.954 325.735 459.736C324.322 462.519 322.277 464.979 319.741 466.943C317.044 468.594 313.867 469.423 310.647 469.317C307.138 469.485 303.68 468.482 300.888 466.487C298.538 464.289 296.755 461.617 295.672 458.679C294.591 455.738 294.238 452.607 294.642 449.521C296.011 444.23 298.125 439.133 300.927 434.362V434.399ZM390.176 572.758C371.011 572.758 351.046 572.43 330.846 571.772C281.831 570.43 233.833 558.364 190.697 536.543C161.657 521.805 149.146 508.327 142.238 499.487C127.971 481.225 128.576 462.963 144.189 445.412C154.474 433.779 171.181 423.241 191.244 415.735C210.13 408.57 230.275 404.755 250.653 404.485C260.532 404.355 270.374 405.656 279.829 408.338C282.628 409.26 285.343 410.389 287.948 411.717C289.256 412.338 290.583 412.977 292.027 413.543C293.118 414.015 293.98 414.853 294.442 415.892C294.905 416.929 294.935 418.092 294.525 419.15C293.765 421.122 293.003 422.985 292.282 424.793C290.778 428.243 289.474 431.767 288.378 435.349C288.183 436.098 287.968 436.846 287.753 437.595C285.947 443.142 284.834 448.866 284.435 454.653C284.283 457.987 284.835 461.316 286.061 464.451C287.286 467.584 289.162 470.462 291.579 472.915C293.908 475.105 296.679 476.842 299.732 478.02C302.783 479.199 306.056 479.797 309.358 479.783H309.807C313.672 479.827 317.508 479.147 321.087 477.782C324.667 476.418 327.919 474.397 330.65 471.838C332.943 469.653 334.73 467.05 335.902 464.19C337.073 461.332 337.605 458.278 337.461 455.219C337.17 447.694 333.832 439.751 330.612 432.044C330.299 431.295 329.967 430.546 329.675 429.797C328.089 426.61 326.061 423.631 323.644 420.939C322.298 419.277 320.892 417.543 319.488 415.625C318.899 414.799 318.618 413.815 318.69 412.824C318.76 411.834 319.177 410.892 319.878 410.147C321.165 408.795 322.415 407.389 323.625 406.037C326.326 402.889 329.267 399.928 332.426 397.18C351.381 381.209 372.905 368.131 396.206 358.426C419.624 348.963 444.863 344.084 470.37 344.09C473.492 344.09 476.654 344.09 479.797 344.29C491.921 344.595 503.862 347.146 514.927 351.797C526.758 357.045 536.868 365.169 544.201 375.319C544.858 376.194 545.16 377.259 545.053 378.324C544.945 379.389 544.436 380.382 543.616 381.126C542.21 382.423 540.804 383.683 539.438 384.907C536.511 387.555 533.74 390.039 531.125 392.651C528.51 395.262 525.368 398.293 522.538 401.015C514.36 408.96 505.909 417.159 498.512 425.78C494.146 431.331 491.183 437.737 489.847 444.517C489.114 446.615 488.954 448.852 489.381 451.024C489.808 453.195 490.81 455.231 492.294 456.946C493.779 458.663 495.699 460.004 497.88 460.848C500.06 461.691 502.431 462.01 504.777 461.775C505.363 461.775 505.969 461.775 506.553 461.775C511.941 461.395 517.191 460.004 521.991 457.685C535.028 451.183 545.119 443.293 551.968 434.254C559.433 424.265 563.458 412.382 563.503 400.193C563.737 389.729 567.953 383.537 578.043 378.844C601.833 367.494 628.118 361.479 654.821 361.275C663.778 361.282 672.721 361.972 681.559 363.338C691.59 364.909 702.637 369.493 714.366 376.981C724.944 383.756 728.613 395.244 724.125 407.571C720.221 418.621 713.058 424.008 701.154 424.775C683.85 425.999 666.643 428.214 649.629 431.405C642.471 432.964 635.794 436.045 630.113 440.408C625.448 443.896 623.028 448.243 623.341 452.607C623.652 456.973 626.854 461.41 632.299 464.497C638.678 468.205 646.023 470.2 653.533 470.267C658.21 470.262 662.845 469.431 667.194 467.82C681.795 462.268 695.698 455.224 708.647 446.818C715.868 442.234 721.997 440.189 728.515 440.189C732.131 440.213 735.717 440.794 739.132 441.905C748.728 444.637 757.747 448.9 765.791 454.506C774.048 460.437 780.391 468.388 784.119 477.481C791.612 495.269 787.182 509.861 771.315 519.65C760.74 526.334 748.936 531.132 736.498 533.804C700.821 540.707 664.287 546.788 629.156 552.669L610.792 555.737C542.347 567.133 470.116 572.721 390.176 572.721V572.758ZM694.01 443.293C691.785 447.293 686.301 450.872 683.003 452.881C672.698 459.145 656.382 463.511 643.833 460.004C636.182 457.849 631.557 443.567 641.55 441.504L664.111 437.668L686.672 433.833C687.11 433.76 687.554 433.723 687.999 433.723C689.137 433.703 690.263 433.941 691.282 434.415C692.301 434.888 693.184 435.584 693.854 436.445C694.59 437.442 694.995 438.618 695.024 439.828C695.051 441.039 694.699 442.232 694.01 443.257V443.293Z" fill="black"/>
</svg>
