<svg width="500" height="239" viewBox="0 0 500 239" fill="none" xmlns="http://www.w3.org/2000/svg">
<path d="M495.051 77.5002C491.373 59.1594 480.172 46.3917 460.827 38.6316C430.813 26.5978 399.935 28.9253 366.378 45.6858C363.245 47.2661 360.232 49.0437 356.751 51.1037C355.025 52.1192 353.224 53.1777 351.287 54.2923C350.511 54.7361 349.582 54.8874 348.689 54.7143C347.798 54.5419 347.01 54.0575 346.488 53.361C345.141 51.5412 343.84 49.8479 342.584 48.2115C340.01 44.8536 337.588 41.6938 335.394 38.3359C318.592 12.9409 292.891 0.243408 258.956 0.243408C257.094 0.243408 255.217 0.242626 253.295 0.355725C201.196 2.47185 161.599 18.5272 132.204 49.4392C125.772 56.2111 118.355 59.3147 108.168 59.3856C84.7223 59.6111 62.3356 66.9469 41.6444 81.1545C7.49701 104.617 -8.22945 148.225 4.25792 184.837C13.158 210.924 28.733 224.552 53.2538 227.726C61.2004 228.757 69.2679 229.913 77.0782 231.014C87.6738 232.537 98.6928 234.103 109.515 235.373C156.332 240.903 204.011 237.673 250.131 234.555C256.327 234.132 262.518 233.718 268.703 233.313C292.921 231.747 317.563 229.081 341.357 226.555C357.614 224.82 374.43 223.014 391.02 221.561C420.339 219.007 447.024 209.16 472.589 191.467C490.752 178.883 499.123 163.83 498.033 145.446C497.748 139.486 498.088 133.512 499.047 127.613C501.696 110.655 498.32 93.8099 495.051 77.5002ZM342.931 77.8107C346.822 78.6718 350.712 81.493 350.333 84.3852C349.183 93.1469 337.74 114.422 321.998 108.85C309.359 104.363 329.006 88.1237 333.517 82.227C334.595 80.5781 336.066 79.1827 337.815 78.1492C339.422 77.4682 341.238 77.3481 342.931 77.8107ZM126.786 79.7715C131.644 74.7632 140.151 80.8862 144.269 85.1051C148.809 89.8311 150.686 95.7708 151.549 101.597C152.76 109.752 145.01 117.399 135.641 120.362C126.271 123.324 121.61 110.966 120.505 105.618C118.704 97.3932 121.306 88.8998 125.62 81.422C125.938 80.8316 126.33 80.2778 126.786 79.7715ZM491.827 149.933C490.586 161.742 484.728 172.069 474.405 180.633C447.16 203.206 417.856 214.564 384.602 215.353C364.471 215.833 343.991 217.681 324.162 219.459C316.412 220.15 308.406 220.87 300.504 221.49C294.011 222.013 287.411 222.648 281.024 223.254C271.337 224.185 261.347 225.144 251.403 225.737C230.742 226.95 209.021 227.881 185.151 228.558C181.115 228.672 177.104 228.728 173.118 228.728C129.753 228.728 88.3547 222.407 52.9814 216.031C42.5526 214.154 27.6586 208.977 18.6677 185.782C12.6131 170.263 12.265 152.373 17.5173 135.232C22.5233 118.487 32.8625 103.55 47.169 92.3989C64.7813 78.7958 87.0888 71.6074 109.954 72.1674C110.459 72.1838 110.954 72.3 111.407 72.5075C111.86 72.7149 112.261 73.0098 112.582 73.3725C112.904 73.7352 113.14 74.1572 113.274 74.6111C113.408 75.0651 113.438 75.5401 113.36 76.005C113.042 77.8676 112.755 79.6023 112.497 81.2676C111.937 84.6816 111.422 87.8983 110.772 91.0448C108.986 99.5093 110.197 108.073 114.465 117.089C117.81 124.142 123.546 128.883 130.328 130.04C137.109 131.197 144.132 128.827 150.005 123.296C159.586 114.31 162.205 103.079 157.573 90.8467C155.227 84.5825 151.519 78.77 147.25 72.0402C145.222 68.8236 143.103 65.4945 140.999 61.8824C140.701 61.3871 140.543 60.8278 140.543 60.26C140.543 59.6914 140.701 59.1329 140.999 58.6376C145.162 51.8798 153.653 45.9401 161.266 40.8748C193.189 19.712 229.667 10.5136 269.702 13.4487C293.647 15.1974 312.553 25.7086 325.903 44.6703C328.537 48.4228 331.125 52.2042 333.88 56.2111C335.212 58.1579 336.595 60.1656 338.028 62.235C338.441 62.8387 338.635 63.55 338.581 64.2637C338.526 64.9782 338.226 65.6568 337.725 66.1997C336.287 67.7659 334.849 69.219 333.472 70.6292C330.675 73.3304 328.104 76.2265 325.782 79.2919C325.041 80.3644 324.268 81.4228 323.496 82.4945C319.546 87.9545 315.459 93.5977 313.628 99.4251C311.721 105.548 312.704 110.965 316.322 114.281C320.212 117.864 326.584 118.739 333.805 116.679C339.984 114.778 345.438 111.245 349.504 106.509C353.57 101.773 356.071 96.0375 356.705 90.0004C356.705 89.6338 356.781 89.2664 356.811 88.8998C357.001 87.7119 357.001 86.5044 356.811 85.3165C351.695 65.8323 368.921 58.2991 374.672 55.8156C409.985 40.438 438.563 40.7056 464.596 56.6767C471.798 61.3356 477.582 67.6543 481.383 75.0175C494.884 101.09 494.052 128.756 491.827 149.933Z" fill="#A06AF8"/>
</svg>
