<svg width="897" height="895" viewBox="0 0 897 895" fill="none" xmlns="http://www.w3.org/2000/svg">
<path fill-rule="evenodd" clip-rule="evenodd" d="M193.713 584.058C364.594 595.796 532.84 607.348 702.449 618.997C700.288 503.196 698.627 389.716 696.184 276.187C688.106 276.187 682.174 275.909 676.274 276.236C651.545 277.613 626.832 279.308 602.099 280.64C555.1 283.164 508.078 285.4 461.083 287.982C398.755 291.406 336.44 295.044 274.117 298.594C252.005 299.854 229.893 301.122 206.694 302.447C202.355 396.587 198.079 489.385 193.713 584.058ZM690.577 263.366C700.026 262.872 708.025 270.309 708.407 279.756C708.936 292.724 709.444 304.928 709.646 317.141C710.932 394.422 711.993 471.709 713.245 548.99C713.608 571.278 714.386 593.555 714.883 615.839C715.199 630.021 712.7 632.423 698.583 631.458C612.546 625.557 526.512 619.615 440.477 613.688C368.781 608.75 297.084 603.82 225.391 598.852C215.01 598.133 204.631 597.336 194.27 596.376C183.103 595.337 181.449 593.972 181.76 582.594C182.374 560.313 183.608 538.054 184.639 515.788C187.849 446.517 191.033 377.241 194.335 307.977C195.132 291.276 195.986 290.646 212.362 289.766C287.099 285.741 361.833 281.722 436.567 277.651C508.826 273.716 581.079 269.736 653.335 265.728C665.705 265.043 678.059 264.051 690.429 263.374C690.479 263.372 690.527 263.369 690.577 263.366ZM589.293 437.78C594.088 442.918 594.063 450.903 589.089 455.874C588.271 456.692 587.443 457.475 586.587 458.228C554.735 486.201 522.799 514.078 490.865 541.955C488.616 543.921 486.461 546.492 483.794 547.357C481.034 548.248 476.495 548.637 474.878 547.061C471.659 543.926 472.622 539.746 476.53 536.916C478.139 535.753 480.093 535.016 481.573 533.724C514.244 505.207 546.866 476.636 580.702 447.024C572.32 438.666 564.71 433.137 555.775 424.93C534.112 405.036 519.645 388.54 492.99 364.649C490.568 362.48 488.55 360.011 486.158 357.877C482.639 354.734 479.104 351.198 483.664 346.721C488.214 342.257 491.857 346.195 495.126 349.237C507.544 360.784 519.879 372.414 532.25 384.004C550.082 400.71 567.965 417.362 585.713 434.152C586.939 435.311 588.113 436.517 589.293 437.78ZM278.095 461.67C284.099 465.795 288.241 469.057 292.759 471.675C326.053 490.954 359.415 510.104 392.767 529.285C394.903 530.515 397.075 531.683 399.249 532.85C403.111 534.929 406.232 538.121 403.206 542.131C401.832 543.955 397.152 544.077 394.163 543.642C391.414 543.239 388.888 541.114 386.324 539.642C351.669 519.764 317.021 499.871 282.382 479.964C279.821 478.491 277.079 477.171 274.873 475.256C265.698 467.281 264.829 457.365 272.918 448.593C304.721 414.106 336.672 379.757 368.602 345.394C370.265 343.609 372.024 341.421 374.163 340.727C376.118 340.093 379.397 340.482 380.71 341.802C381.991 343.089 382.504 346.669 381.614 348.281C379.751 351.658 376.86 354.509 374.19 357.39C345.994 387.813 317.752 418.19 289.551 448.609C286.234 452.19 283.107 455.944 278.095 461.67Z" fill="black"/>
</svg>
