<svg width="1237" height="1237" viewBox="0 0 1237 1237" fill="none" xmlns="http://www.w3.org/2000/svg">
<path fill-rule="evenodd" clip-rule="evenodd" d="M664.504 777.582C657.779 770.162 653.879 762.35 647.549 757.625C648.967 765.034 657.191 770.879 661.194 777.558C661.35 777.756 661.979 777.582 664.504 777.582ZM501.854 698.69C491.771 696.686 437.903 722.225 444.335 730.297C471.847 728.249 510.061 736.34 520.456 702.62C514.297 701.351 508.147 696.503 501.854 698.69ZM908.15 717.882C906.658 712.1 905.491 699.643 900.295 689.189C883.006 656.895 838.562 639.492 803.205 650.217C792.518 655.908 763.294 657.41 766.17 638.792C802.301 622.227 803.452 642.907 850.963 609.955C1071.23 471.722 741.643 415.437 674.053 544.852C668.629 554.344 658.924 558.881 648.84 550.623C642.933 527.409 677.133 514.553 685.528 496.235C710.205 447.318 727.473 385.467 685.596 340.051C670.535 322.935 645.444 314.105 630.087 324.681C555.134 369.733 501.351 461.341 520.038 548.979C533.462 565.843 556.708 575.681 565.581 595.435C547.03 589.295 536.482 569.024 519.613 560.124C523.714 578.238 533.261 582.54 547.371 591.16C531.108 594.936 514.673 579.723 510.526 564.441C509.102 559.172 507.331 551.99 503.395 549.731C446.008 514.409 323.63 504.098 313.778 592.755C313.208 648.828 365.578 714.236 420.354 723.389C436.403 715.179 450.47 703.15 466.405 694.673C482.393 686.169 500.296 684.556 517.495 691.41C571.402 717.85 484.77 748.521 458.622 742.396C446.414 741.739 433.208 731.451 422.509 750.586C394.637 791.758 398.607 844.23 433.268 879.552C500.424 947.685 646.838 904.69 670.738 814.259C675.694 797.967 663.439 791.322 652.119 783.262C643.239 776.94 636.427 767.397 629.775 758.481C626.842 753.586 631.799 741.897 639.204 744.853C650.041 752.744 661.201 760.513 670.565 769.993C676.633 776.137 678.01 788.883 684.669 792.111C722.857 810.969 765.812 829.054 808.604 816.269C854.042 798.519 907.846 778.985 908.15 717.882ZM725.026 422.66C721.602 436.127 714.735 463.186 708.944 485.955C774.709 455.996 859.205 442.66 919.659 492.092C984.769 545.756 885.376 610.743 840.328 637.274C956.287 679.555 943.753 783.479 835.722 825.137C784.941 846.338 734.208 828.783 687.491 805.246C679.889 916.687 513.185 959.13 432.322 892.461C372.957 852.857 371.98 789.085 411.874 734.627C412.343 733.742 410.936 730.697 409.8 730.274C375.983 717.65 348.245 697.033 326.917 667.866C291.981 623.458 274.961 546.419 342.24 518.783C406.149 491.443 450.183 529.347 504.951 538.119C499.829 452.722 550.274 326.986 643.759 313.109C698.219 319.431 724.056 365.588 725.026 422.66Z" fill="#C497EA"/>
</svg>
