<svg width="390" height="409" viewBox="0 0 390 409" fill="none" xmlns="http://www.w3.org/2000/svg">
<path d="M333.219 39.4365C326.61 36.2566 318.152 36.5644 308.797 40.3255C302.078 42.9878 295.822 46.5718 290.235 50.9591C279.381 59.443 269.097 68.5439 259.443 78.2099C232.806 105.341 203.094 138.935 184.714 182.393C184.319 183.321 183.643 184.12 182.768 184.694C181.893 185.268 180.858 185.591 179.789 185.624C178.723 185.644 177.673 185.381 176.761 184.862C175.85 184.345 175.116 183.595 174.646 182.7C173.456 180.358 172.43 178.221 171.478 176.255C169.992 172.965 168.305 169.757 166.426 166.647C164.083 162.972 161.776 159.279 159.469 155.586C152.146 143.756 144.458 131.532 135.963 120.266C126.653 107.987 113.704 98.5157 98.7087 93.0152C92.4141 90.548 85.6715 89.2306 78.8459 89.1345C71.7791 89.0384 64.8366 90.8744 58.8733 94.4167C47.8892 100.999 41.5549 113.017 40.9142 128.233C40.0172 149.551 44.5753 170.973 54.8271 193.864C76.0998 241.169 98.1593 288.012 122.709 339.966C126.265 347.344 130.864 354.244 136.384 360.481C146.416 371.884 157.748 374.449 172.064 368.499C180.521 364.85 188.43 360.183 195.588 354.617C226.106 331.555 250.253 302.099 269.841 276.318C310.592 222.688 335.105 170.596 344.752 117.052C347.993 99.1526 351.654 78.8424 346.967 58.9256C344.716 49.4887 339.975 42.736 333.219 39.4365ZM334.683 80.1078C329.942 131.977 311.068 183.282 276.981 236.946C250.564 278.54 221.731 312.732 188.852 341.47C177.685 351.232 168.22 357.797 159.249 357.797C158.123 357.8 157.001 357.692 155.899 357.472C146.032 355.592 139.624 345.881 133.052 331.828C114.581 292.507 90.544 240.775 68.3928 188.051C61.3525 170.486 57.0908 152.057 55.7424 133.344C54.7722 122.095 58.69 112.949 66.4888 108.265C74.2876 103.58 85.107 104.025 95.7799 109.633C104.018 113.923 119.176 123.104 128.201 136.37C139.313 152.731 149.053 170.169 158.481 187.026C162.472 194.172 166.609 201.557 170.764 208.737C173.382 213.268 176.165 217.849 178.874 222.261C179.332 223.03 179.789 223.799 180.265 224.551C189.419 220.568 191.378 215.439 191.927 211.285C197.255 170.921 221.602 140.166 246.078 112.129C260.383 96.0065 275.587 80.599 291.626 65.9694C297.107 61.2297 303.13 57.0675 309.585 53.5577C312.477 51.8481 315.461 50.1387 318.39 48.1898C319.54 47.4437 320.953 47.1362 322.338 47.33C323.723 47.5238 324.976 48.2042 325.841 49.2324C335.581 60.7722 335.599 70.0725 334.629 80.1762L334.683 80.1078Z" fill="#E9CDFF"/>
</svg>
