<svg width="388" height="393" viewBox="0 0 388 393" fill="none" xmlns="http://www.w3.org/2000/svg">
<path d="M116.141 50.3117C117.563 46.7862 115.742 42.7893 112.15 41.5477C108.626 40.3298 104.79 42.2492 103.652 45.7992L70.6262 148.823C70.3393 149.718 70.54 150.698 71.1548 151.409C72.4735 152.93 74.9343 152.52 75.6876 150.652L116.141 50.3117Z" fill="#E9CDFF"/>
<path d="M247.123 158.718C250.023 156.26 250.273 151.876 247.672 149.104C245.122 146.385 240.834 146.297 238.173 148.908L160.968 224.698C160.297 225.356 160.018 226.317 160.232 227.232C160.69 229.193 163.059 229.975 164.595 228.673L247.123 158.718Z" fill="#E9CDFF"/>
<path d="M319.203 320.875C323.004 320.941 326.085 317.81 325.958 314.011C325.834 310.285 322.67 307.391 318.948 307.598L210.927 313.632C209.989 313.685 209.146 314.223 208.703 315.051C207.754 316.827 209.018 318.978 211.031 319.013L319.203 320.875Z" fill="#E9CDFF"/>
</svg>
