<svg width="282" height="639" viewBox="0 0 282 639" fill="none" xmlns="http://www.w3.org/2000/svg">
<path fill-rule="evenodd" clip-rule="evenodd" d="M28.885 184.75C45.1807 195.189 61.1133 204.574 76.1298 215.248C91.0834 225.875 108.584 240.768 124.067 252.943C122.937 250.044 118.224 241.865 117.321 240.041C103.451 217.257 89.8638 201.993 66.8392 190.336C59.2731 186.506 50.7004 184.55 42.446 182.243C38.0246 181.008 33.3764 181.263 28.885 184.75ZM24.3124 90.389C57.8874 110.717 90.0573 130.847 120.056 154.614C119.327 151.171 118.22 148.053 116.647 145.192C106.04 125.891 91.6594 110.088 72.6932 98.7542C62.8986 92.9013 52.7949 87.698 41.2368 86.026C35.4743 85.1942 30.2764 85.9716 24.3124 90.389ZM114.769 159.468C85.7813 137.281 52.8876 116.047 20.5769 97.1384C19.1821 108.001 24.2712 114.758 29.8309 120.849C51.5593 144.656 82.2805 157.519 114.769 159.468ZM117.321 260.105C98.1433 237.349 37.618 196.03 23.1398 192.114C22.1606 196.725 25.1449 204.364 31.0597 211.513C53.1224 238.167 82.8416 251.233 117.321 260.105ZM121.233 360.625C116.54 355.42 110.806 351.356 105.658 346.65C92.682 334.784 79.9742 322.606 66.7269 311.051C55.3474 301.126 43.4194 291.826 31.6128 282.399C29.1129 280.403 26.0943 279.055 22.7252 277.058C20.9846 285.156 22.4424 291.585 26.2935 296.872C31.7021 304.3 37.3638 311.812 44.1501 317.913C66.5059 338.008 95.0892 347.244 121.233 360.625ZM27.378 270.183C62.3272 294.489 95.6812 329.098 126.564 356.152C125.766 352.294 120.003 343.43 118.305 340.233C109.172 323.058 100.065 305.844 87.0982 291.128C79.4875 282.492 71.035 274.776 60.1113 270.574C49.9205 266.653 39.5121 264.61 27.378 270.183ZM145.032 305.829C186.307 293.489 227.316 285.882 270.891 279.857C266.913 276.557 264.832 274.334 262.319 272.838C253.938 267.849 244.71 265.121 235.021 265.327C201.156 266.046 172.161 278.723 147.689 302.014C146.908 302.759 146.419 303.811 145.032 305.829ZM202.107 8.37526C195.187 5.67921 192.828 6.51953 186.393 8.24598C173.574 11.6888 164.145 19.9098 156.195 30.0511C140.818 49.6671 133.405 72.1986 132.623 96.9529C132.425 103.299 133.198 113.317 134.092 116.055C156.468 80.69 179.331 44.3701 202.107 8.37526ZM139.162 242.412C147.232 235.758 155.133 228.895 163.29 222.352C191.275 199.901 221.769 181.239 252.627 163.126C255.702 161.319 258.647 159.29 262.014 157.135C252.985 150.953 244.855 149.164 234.872 150.627C220.915 152.673 208.112 157.731 196.421 165.556C174.371 180.32 157.661 199.723 146.587 223.887C143.819 229.929 141.771 236.3 139.162 242.412ZM273.583 287.1C230.23 292.817 188.27 300.323 146.124 313.504C148.855 315.178 150.284 316.272 151.877 316.998C174.497 327.294 198.234 331.963 222.976 329.572C239.353 327.99 253.96 321.611 265.465 309.327C270.9 303.524 274.191 296.802 273.583 287.1ZM137.725 122.758C141.859 121.832 146.25 121.885 150.346 120.81C175.743 114.155 195.11 98.9649 209.124 77.1978C216.901 65.119 221.357 51.4889 220.605 36.7871C220.145 27.7701 217.696 19.4199 209.39 12.888C182.827 48.4083 163.468 87.6521 137.725 122.758ZM266.938 163.352C223.307 189.014 179.903 214.317 143.906 250.883C150.236 251.7 156.516 252.431 162.096 250.785C178.008 246.088 193.942 241.185 209.286 234.931C225.655 228.261 240.068 218.056 252.621 205.45C258.974 199.073 264.688 192.183 267.731 183.534C269.999 177.092 271.412 170.574 266.938 163.352ZM22.1481 573.588C12.8883 572.526 11.253 572.953 10.267 580.036C9.04282 588.823 8.96838 597.791 8.76568 606.692C8.65689 611.471 11.3881 614.828 15.8073 616.619C21.501 618.926 27.102 621.625 32.9893 623.267C50.6236 628.18 68.7756 629.659 86.9848 630.28C101.475 630.777 115.996 630.504 130.472 631.243C154.28 632.459 177.973 631.204 201.548 628.215C211.868 626.906 222.022 624.104 232.034 618.951C231.369 607.427 230.579 596.058 230.115 584.674C229.884 579.034 226.924 578.129 221.677 579.028C222.644 580.429 223.336 581.386 223.982 582.373C228.793 589.726 228.422 594.911 221.367 599.784C216.932 602.848 211.596 605.331 206.335 606.32C194.237 608.594 181.958 609.975 169.715 611.388C146.686 614.048 123.591 615.44 100.509 612.221C87.3959 610.392 74.3354 608.119 61.3114 605.717C49.4957 603.538 37.7085 601.126 26.8684 595.522C19.6985 591.815 16.8562 587.102 18.6713 580.893C19.3493 578.582 20.7418 576.484 22.1481 573.588ZM15.8279 359.708C15.5725 361.627 15.221 362.842 15.2817 364.034C17.2628 402.897 18.5568 441.813 21.5217 480.6C23.9677 512.603 28.6102 544.435 31.8155 576.391C32.7076 585.273 33.3397 588.854 33.3397 588.854C53.2346 594.765 85.2751 602.89 105.792 604.301C126.619 605.732 147.694 604.781 168.585 603.554C182.325 602.748 195.973 599.798 209.982 595.074C215.724 518.376 219.336 441.743 215.158 364.101C182.081 373.617 148.955 373.89 115.621 373.025C81.9324 372.152 48.9964 366.088 15.8279 359.708ZM22.7161 564.851C22.4034 560.551 22.3336 556.596 21.7988 552.704C15.868 509.495 12.3672 466.079 10.4937 422.517C9.68182 403.681 8.80347 384.849 7.9675 366.016C7.88619 364.164 8.07744 362.28 7.82093 360.456C6.76623 352.935 11.5633 347.617 19.6848 347.029C28.301 346.407 38.1208 347.676 38.1208 347.676C46.1335 347.501 69.7375 348.552 79.5699 348.552C76.5158 346.48 66.4704 342.314 64.3564 341.122C51.9108 334.103 39.9267 326.289 30.778 315.231C25.153 308.43 19.6779 300.892 16.5562 292.757C9.34971 273.971 19.4913 260.033 39.5018 259.443C52.9724 259.047 65.0504 263.096 75.9191 270.883C87.1131 278.904 96.2458 288.976 103.625 300.507C110.277 310.907 116.288 321.716 122.562 332.358C123.92 334.658 125.19 337.009 127.312 339.196C128.788 316.175 128.061 290.269 127.66 267.717C115.367 267.528 101.532 263.442 89.0828 259.185C67.1575 251.686 47.6199 239.984 31.5372 223.155C26.4768 217.862 21.7587 211.822 18.4847 205.317C10.3117 189.085 20.0879 173.784 38.2754 174.779C47.0141 175.257 56.0803 177.461 64.1583 180.874C89.8638 191.726 108.332 210.848 122.093 234.807C123.316 236.939 124.402 239.149 125.583 241.304C125.713 241.546 127.605 245.849 128.121 246.431C128.352 244.057 127.741 238.19 127.727 236.287C127.587 217.741 127.388 199.192 127.191 180.644C127.178 179.411 127.094 178.169 126.928 176.948C126.455 173.51 126.057 167.377 126.057 167.377C126.057 167.377 121.407 168.482 117.64 168.338C101.773 167.725 86.3745 165.009 71.6706 158.845C54.9673 151.847 39.6793 142.573 27.4089 129.13C22.4859 123.739 17.7243 117.594 14.9782 110.928C5.92568 88.9636 23.6024 76.8779 39.2098 78.4854C46.7347 79.2594 54.334 81.668 61.3504 84.6346C86.3103 95.1836 105.391 112.746 119.759 135.6C121.327 138.097 124.487 144.623 125.918 149.639C126.11 140.328 127.427 123.997 126.392 114.825C122.53 80.496 130.692 49.8321 152.435 22.9375C158.722 15.164 166.253 8.82428 175.324 4.45102C201.629 -8.22649 227.489 7.3224 227.757 36.5796C227.837 45.3703 226.632 54.6868 223.655 62.9042C211.017 97.7957 185.501 118.898 150.11 128.388C145.158 129.716 139.804 129.536 133.797 130.139C132.678 161.935 135.431 200.036 135.319 232.4C137.529 226.166 139.485 221.283 140.623 218.921C152.151 194.972 168.848 175.508 190.706 160.478C203.61 151.608 217.663 145.3 233.319 143.649C239.653 142.98 246.355 143.103 252.562 144.418C272.624 148.665 281.763 165.878 274.96 185.37C271.945 194.008 266.77 201.25 260.58 207.838C244.19 225.283 224.345 237.604 202.24 246.201C191.055 250.55 179.524 254.212 167.881 257.1C160.828 258.851 158.544 259.307 149.826 258.895C141.124 257.633 139.162 256.808 135.416 255.751C135.416 270.346 135.526 287.5 135.526 302.696C138.012 300.636 139.633 299.496 141.017 298.117C164.457 274.738 192.85 261.799 225.543 258.134C237.397 256.805 248.965 258.588 259.979 263.275C283.322 273.21 288.191 295.463 271.056 314.163C258.335 328.044 242.027 335.34 223.705 336.878C193.488 339.413 164.71 334.023 138.548 317.713C138.129 317.453 137.784 316.966 136.257 316.236C136.257 326.78 136.206 338.793 136.206 349.254C152.017 348.921 167.398 348.325 182.775 348.387C190.765 348.417 198.778 349.387 206.721 350.389C209.999 350.802 213.237 352.168 216.3 353.537C220.854 355.57 222.72 358.869 222.929 364.349C225.434 429.288 224.394 494.153 219.721 558.967C219.478 562.339 219.688 565.744 219.688 570.336C222.207 570.707 225.139 570.99 228.009 571.595C234.501 572.965 236.733 575.025 237.182 581.352C238.057 593.682 238.345 606.053 239.216 618.383C239.572 623.419 237.23 625.857 232.883 627.067C222.208 630.039 211.679 634.138 200.798 635.653C176.624 639.018 152.226 639.592 127.8 638.492C113.614 637.854 99.395 638.046 85.2018 637.546C66.9834 636.904 48.8028 635.418 31.1834 630.452C24.1235 628.464 17.3716 625.257 10.6586 622.207C5.20652 619.732 2.53027 615.12 1.57062 609.13C-0.126506 598.548 0.858341 588.136 3.2105 577.861C5.49739 567.876 8.18508 565.98 18.487 565.346C19.6527 565.273 20.8128 565.077 22.7161 564.851Z" fill="black"/>
</svg>
