<svg width="326" height="387" viewBox="0 0 326 387" fill="none" xmlns="http://www.w3.org/2000/svg">
<path d="M218.596 52.878C208.974 58.6379 203.819 62.7376 197.877 65.0869C183.208 70.8463 168.383 76.3809 153.219 80.898C140.633 84.6024 135.719 91.6274 134.993 103.689C133.859 119.255 131.839 134.753 128.942 150.118C127.623 157.628 124.162 164.8 119.514 171.724C103.564 147.837 117.094 122.335 111.285 95.1961L55.9655 107.676C53.424 95.9752 61.2662 93.468 67.2324 90.6784C77.1536 85.919 87.4508 81.8755 98.0328 78.5826C111.345 74.5959 117.033 66.5999 117.856 53.9509C118.727 40.6128 120.555 27.3086 122.528 14.0608C123.121 10.0741 125.614 6.32457 128.264 0C149.382 18.3977 133.65 41.3696 142.69 60.5127C166.302 62.8279 188.352 46.5647 218.596 52.878Z" fill="#E9CDFF"/>
<path d="M251.844 125.681C268.114 139.131 262.506 151.722 263.278 162.914C264.074 174.637 263.458 186.461 263.458 201.06L325.789 197.167C319.288 204.14 317.225 208.303 313.897 209.578C301.474 214.283 288.871 218.886 275.906 221.888C262.422 225.024 256.017 232.144 254.449 244.758C252.628 259.289 249.504 273.618 240.604 287.45C229.134 280.308 233.162 270.752 232.498 262.798C231.763 254.099 232.33 245.31 232.33 234.219H188.634C191.359 219.361 203.106 217.792 212.092 216.167C231.1 212.704 238.372 203.226 238.155 185.49C238.01 173.08 240.748 160.477 243.221 148.145C244.548 141.5 248.045 135.294 251.844 125.681Z" fill="#E9CDFF"/>
<path d="M73.0445 240.434L77.1475 303.007H116.731C117.178 304.674 117.625 306.387 118.059 308.021C112.242 310.703 106.618 313.858 100.572 315.965C76.6888 324.304 76.7734 324.179 75.8199 348.79C75.4219 359.111 74.4199 369.421 73.3339 379.698C73.1285 381.636 71.222 383.417 69.0494 387C53.361 369.918 66.1894 346.987 52.4437 330.231C36.4168 326.726 19.8591 339.808 0.211914 330.76C3.94103 326.152 6.24609 321.938 9.86655 319.166C12.7388 316.912 17.1801 316.574 20.9093 315.346C31.9275 311.706 46.8561 310.894 52.8785 303.638C58.9002 296.381 55.9917 282.476 57.7056 271.602C59.3711 261.055 61.9411 250.632 64.1137 240.164L73.0445 240.434Z" fill="#E9CDFF"/>
</svg>
