<svg width="114" height="127" viewBox="0 0 114 127" fill="none" xmlns="http://www.w3.org/2000/svg">
<path d="M81.6734 72.6947C80.9594 70.0327 80.4385 67.2356 79.6354 64.6933C78.2572 60.4265 75.6614 57.298 71.3727 55.6976C67.7716 54.4212 64.2015 53.3532 60.5117 52.1965C59.3911 51.8301 58.1817 51.5835 57.0613 51.217C56.165 50.9241 55.5352 50.2722 55.7094 49.2883C55.8256 48.6325 56.4942 48.1076 56.9387 47.5096C57.0276 47.3899 57.2363 47.359 57.445 47.3281C65.4406 44.4408 70.1837 38.3093 72.8908 30.6697C75.3194 24.0295 77.0757 17.1695 79.1759 10.4714C79.4543 9.47207 79.7329 8.47275 80.1465 7.66634C80.3979 7.20332 81.1708 6.66304 81.7079 6.68996C82.2451 6.71685 82.9636 7.24915 83.1605 7.85869C83.4618 8.45279 83.4808 9.30156 83.4845 10.0462C83.4917 11.5354 83.4991 13.0246 83.4175 14.6335C83.0755 20.9647 85.2069 26.7168 87.3383 32.4688C88.35 34.9803 90.1926 36.6235 92.6731 37.5337C95.8259 38.6635 99.006 39.2571 102.348 39.5072C103.423 39.5611 104.883 39.3448 105.219 40.8918C105.57 42.543 104.171 43.176 103.07 43.6584C98.2468 45.6501 95.193 49.5087 92.5293 53.8419C89.7768 58.2946 87.8317 63.1601 86.8874 68.3032C86.3495 71.1506 85.9159 73.9825 85.3625 76.7257C85.2309 77.2774 85.3081 77.7983 85.0413 78.1571C84.7011 78.7398 84.0788 79.5771 83.646 79.5347C83.1089 79.5078 82.5681 78.7363 82.1626 78.1577C81.8922 77.7718 81.9194 77.2356 81.8423 76.7149C81.6418 75.3606 81.4412 74.0065 81.2561 72.7565C81.4647 72.7256 81.569 72.7101 81.6734 72.6947Z" fill="#A06AF8"/>
<path d="M54.2856 113.801C53.5459 112.266 52.9081 110.627 52.1281 109.175C50.8006 106.742 48.8645 105.141 46.0758 104.661C43.742 104.3 41.451 104.062 39.077 103.783C38.3543 103.69 37.5914 103.679 36.8688 103.585C36.2908 103.51 35.8334 103.187 35.8261 102.569C35.8212 102.157 36.167 101.762 36.3682 101.348C36.4085 101.265 36.5317 101.222 36.6549 101.179C41.1791 98.5065 43.355 94.2374 44.1211 89.2863C44.8328 84.9743 45.111 80.606 45.6167 76.2965C45.6709 75.6576 45.7253 75.0187 45.8838 74.4813C45.9832 74.1712 46.3906 73.7543 46.7199 73.7089C47.0492 73.6635 47.5468 73.9042 47.7364 74.2517C47.9877 74.5779 48.0968 75.0912 48.1846 75.5431C48.3602 76.4467 48.5359 77.3503 48.6712 78.3369C49.1913 82.2214 51.1469 85.47 53.1026 88.7184C54.0056 90.1275 55.3136 90.9137 56.9248 91.1814C58.9695 91.5052 60.9691 91.5002 63.0278 91.2679C63.6864 91.1771 64.5487 90.8779 64.9304 91.7789C65.3335 92.7413 64.5566 93.2866 63.9431 93.7062C61.2428 95.4702 59.8316 98.1647 58.7119 101.103C57.552 104.123 56.9299 107.302 56.9475 110.534C56.9481 112.325 57.0103 114.095 56.9895 115.825C56.973 116.175 57.0797 116.483 56.9589 116.731C56.8193 117.124 56.5376 117.704 56.2698 117.728C55.9406 117.774 55.5234 117.367 55.2106 117.062C55.0021 116.859 54.957 116.53 54.8503 116.223C54.5728 115.423 54.2954 114.624 54.0392 113.886C54.1624 113.843 54.224 113.822 54.2856 113.801Z" fill="#E9CDFF"/>
<path d="M23.6622 61.7667C23.1736 60.1346 22.802 58.4157 22.2605 56.8591C21.333 54.2473 19.6734 52.3606 16.995 51.4481C14.7473 50.7236 12.5224 50.1273 10.2219 49.4783C9.52308 49.2719 8.77141 49.141 8.07264 48.9346C7.51358 48.7695 7.11287 48.378 7.20299 47.767C7.26308 47.3596 7.66685 47.0234 7.93084 46.646C7.98365 46.5705 8.11205 46.5477 8.24046 46.5249C13.1293 44.5985 15.9507 40.7255 17.4873 35.957C18.8696 31.811 19.8326 27.5411 21.0109 23.3652C21.1652 22.7428 21.3195 22.1203 21.5607 21.6147C21.7078 21.3242 22.1757 20.9766 22.5081 20.9836C22.8404 20.9907 23.2939 21.3068 23.4264 21.6799C23.6231 22.0416 23.65 22.5657 23.6655 23.0257C23.6965 23.9457 23.7276 24.8658 23.7058 25.8613C23.6073 29.7793 25.0267 33.2954 26.446 36.8114C27.1158 38.3451 28.2836 39.3276 29.8324 39.8458C31.8006 40.4877 33.776 40.7979 35.8456 40.8929C36.5103 40.907 37.409 40.7474 37.644 41.6972C37.8903 42.7112 37.0373 43.1273 36.3653 43.4449C33.4208 44.7614 31.6027 47.2 30.034 49.9248C28.4126 52.725 27.2975 55.7658 26.8056 58.9604C26.5239 60.7293 26.3065 62.4868 26.0134 64.1916C25.9419 64.5348 25.9989 64.8553 25.8404 65.0818C25.6406 65.4479 25.271 65.9763 25.0028 65.9578C24.6705 65.9507 24.3226 65.4837 24.0618 65.1334C23.8878 64.8998 23.8951 64.568 23.8382 64.2476C23.6902 63.4144 23.5421 62.5814 23.4055 61.8123C23.5338 61.7895 23.598 61.7781 23.6622 61.7667Z" fill="#E9CDFF"/>
</svg>
