<svg width="500" height="520" viewBox="0 0 500 520" fill="none" xmlns="http://www.w3.org/2000/svg">
<path fill-rule="evenodd" clip-rule="evenodd" d="M285.853 334.387C283.391 329.201 283.394 329.25 278.079 329.474C276.631 329.534 275.165 329.214 273.71 329.035C269.946 328.573 266.545 326.908 262.441 327.134C258.3 327.364 253.78 326.038 249.935 324.278C247.537 323.181 245.642 322.951 243.14 323.053C234.27 323.415 225.849 328.354 216.674 325.612C215.86 325.368 214.788 326.06 213.824 326.243C208.236 327.307 202.413 327.497 197.399 330.682C190.805 328.786 185.285 333.153 179.125 333.838C172.86 334.535 167.519 337.202 162.9 341.572C161.56 342.842 159.458 343.928 157.668 343.988C150.595 344.219 145.658 348.469 140.548 352.454C138.264 354.236 135.747 355.917 134.024 358.172C131.711 361.199 130.14 364.785 128.113 368.045C125.082 372.923 127.898 379.218 133.651 380.189C137.925 380.913 142.246 381.402 146.473 382.329C151.179 383.36 155.736 385.922 160.547 382.446C161.192 381.98 162.788 382.846 163.946 383.075C165.117 383.305 166.859 384.12 167.375 383.635C171.863 379.423 176.615 382.087 181.339 382.687C184.15 383.045 188.743 384.009 189.523 382.783C191.389 379.844 193.014 381.48 194.999 381.398C199.833 381.193 204.848 381.146 209.409 379.772C213.582 378.513 218.13 376.753 222.15 376.957C223.55 377.028 225.26 376.972 226.343 376.248C230.029 373.774 233.79 372.682 238.15 374.094C239.004 374.372 240.49 374.467 240.931 373.973C244.478 369.993 249.685 371.328 253.98 369.791C257.684 368.468 262.381 369.294 265.589 367.393C269.358 365.16 272.926 364.316 277.082 364.103C279.144 363.996 282.153 363.3 282.97 361.864C284.882 358.506 288.011 359.371 290.575 358.708C295.633 357.397 300.872 356.797 305.945 355.534C308.065 355.007 309.95 353.534 311.942 352.493C307.136 349.967 306.416 343.676 300.932 343.588C300.47 343.579 299.759 342.588 299.613 341.952C297.919 334.599 292.132 334.752 285.853 334.387ZM381.248 181.403C384.241 180.167 386.767 179.291 389.127 178.091C390.566 177.359 392.591 176.344 392.909 175.09C394.56 168.568 398.106 163.256 402.251 158.141C404.297 155.614 403.44 151.799 401.115 150.995C395.197 148.95 389.646 142.987 382.462 147.991C381.708 148.516 380.14 148.132 379.036 147.84C376.425 147.147 373.539 146.747 371.373 145.313C368.801 143.608 365.655 147.733 363.694 144.082C359.982 145.709 356.778 142.63 353.272 142.907C345.163 143.543 337.18 145.643 328.935 144.825C327.603 144.694 325.838 145.132 324.852 145.983C319.137 150.905 312.071 151.003 305.196 152.163C299.742 153.084 294.301 154.497 289.104 156.378C284.817 157.933 282.506 163.824 276.654 162.289C274.591 168.285 266.573 165.838 264.066 171.201C255.507 172.496 252.361 178.839 250.769 185.469C248.974 187.338 246.956 184.72 245.488 187.826C243.839 191.319 238.042 192.731 240.255 198.352C240.285 198.428 239.883 198.639 239.732 198.826C235.261 204.342 234.723 211.222 233.312 217.771C233.03 219.076 233.379 220.764 234.009 221.977C236.95 227.634 240.068 233.2 243.19 238.762C243.515 239.342 244.217 239.951 244.843 240.085C253.536 241.951 260.879 248.629 270.469 247.297C272.837 246.968 275.248 246.924 277.594 246.493C281.618 245.75 285.392 244.315 289.662 246.498C292.501 247.953 295.878 248.819 298.867 245.103C300.627 242.914 303.996 241.825 306.832 240.742C313.409 238.231 320.254 236.37 326.704 233.579C331.405 231.545 335.728 228.569 340.072 225.783C343.054 223.873 345.881 221.687 348.607 219.421C352.901 215.849 357.153 212.217 361.221 208.394C363.832 205.94 365.6 201.989 368.601 200.693C373.196 198.705 374.697 195.582 374.68 191.418C384.196 189.084 383.991 187.617 381.248 181.403ZM486.51 178.938C488.684 184.297 490.668 190.469 493.67 196.092C495.462 199.453 498.401 202.017 496.695 206.384C496.307 207.372 496.683 208.97 497.257 209.972C501.001 216.531 499.476 223.689 499.934 230.65C500.619 241.106 495.813 250.173 493.133 259.778C492.949 260.438 492.462 261.222 491.893 261.527C488.269 263.463 488.321 266.807 488.37 268.729C485.605 271.643 483.477 273.676 481.598 275.914C477.393 280.929 473.326 286.055 469.163 291.104C468.744 291.612 468.035 292.247 467.488 292.223C461.38 291.956 461.008 296.17 461.008 300.866C456.559 301.928 453.683 306.886 448.327 305.466C446.299 308.281 444.255 311.082 442.257 313.917C441.849 314.494 441.617 315.191 441.195 316.054C437.242 317.162 432.796 316.245 429.391 320.373C426.837 323.466 420.845 322.282 418.385 326.782C417.997 327.492 416.759 327.783 415.872 328.169C410.343 330.572 405.069 333.073 400.425 337.339C397.306 340.205 392.376 341.822 388.051 342.367C385.548 342.681 384.623 342.661 383.33 345.024C381.484 348.395 380.233 348.331 376.084 347.507C362.973 353.537 351.013 359.038 338.2 364.931C336.91 373.047 335.619 381.635 334.157 390.196C333.387 394.708 332.203 399.149 331.44 403.662C330.972 406.422 327.799 406.408 326.785 409.39C325.569 412.961 324.787 417.942 320.052 419.692C319.673 419.831 319.363 420.434 319.219 420.884C316.327 429.84 309.114 435.437 303.009 441.898C302.388 442.558 301.87 443.865 301.256 443.897C294.121 444.254 290.562 449.859 285.903 453.945C284.232 455.411 281.492 455.653 279.828 457.121C275.273 461.137 270.296 464.533 264.991 467.336C260.076 469.935 254.711 471.67 249.699 474.103C244.692 476.533 239.925 479.455 234.951 481.956C233.381 482.744 231.485 482.902 229.726 483.29C228.792 483.496 227.51 483.23 226.935 483.77C221.154 489.185 213.121 489.72 206.518 493.338C204.538 494.423 202.451 496.515 199.832 494.106C199.4 493.707 197.954 494.088 197.149 494.471C188.858 498.408 180.566 501.156 170.993 501.383C163.159 501.567 155.445 505.33 147.596 507.171C142.673 508.325 137.589 508.774 132.607 509.699C130.009 510.18 127.481 511.03 124.913 511.669C119.738 512.953 114.921 515.3 109.073 513.269C105.909 512.172 101.734 513.301 98.1885 514.149C93.0903 515.369 87.9921 515.427 82.8231 515.623C77.5088 515.827 71.9223 515.884 66.9862 517.565C58.6945 520.394 50.165 517.857 41.9351 519.801C41.0962 519.999 40.001 518.805 38.9558 518.517C37.778 518.192 36.5226 518.091 35.2966 518.052C34.8988 518.04 34.3535 518.854 34.0977 518.749C23.4895 514.373 11.9465 514.517 0.999015 511.819C0.678289 511.74 0.497347 511.092 0 510.319C2.21729 507.279 5.74175 507.349 8.98369 506.849C12.969 506.237 17.0928 506.565 20.7423 504.052C21.8815 503.265 23.9916 503.982 25.6417 503.827C30.1956 503.401 35.0137 503.672 39.2288 502.219C46.6483 499.659 53.9125 497.886 61.7622 499.44C64.9174 500.066 70.2239 498.368 73.055 496.207C76.7878 499.337 80.4665 499.217 85.2426 497.78C93.7819 495.209 102.731 492.846 111.535 492.752C116.582 492.698 121.479 492.894 126.312 491.475C128.924 490.709 131.317 489.068 133.953 488.544C137.51 487.838 140.608 486.516 144.999 487.715C149.482 488.94 155.89 486.817 160.097 484.074C163.117 482.106 165.568 484.524 167.299 483.151C170.634 480.507 174.602 480.7 178.195 479.423C180.525 478.593 182.521 478.174 185.038 478.191C188.094 478.212 191.291 476.942 194.198 475.698C200.01 473.215 205.586 470.18 211.416 467.752C214.257 466.568 217.544 466.499 220.465 465.459C225.487 463.677 230.572 461.899 235.272 459.437C240.693 456.596 245.595 452.768 250.98 449.85C254.292 448.054 258.108 447.211 261.662 445.85C268.428 443.259 275.449 441.183 279.899 434.621C280.801 433.289 283.328 433.173 284.875 432.144C288.68 429.613 292.762 422.852 294.516 418.57C295.286 416.692 297.909 415.579 300.782 413.223C300.967 412.883 297.488 409.738 302.277 409.18C306.178 408.725 310.486 402.779 311.042 398.832C311.308 396.958 311.482 394.686 312.609 393.389C317.659 387.575 316.448 380.11 318.274 373.468C318.424 372.921 317.79 372.159 317.375 371.138C312.979 372.525 308.333 373.253 304.435 375.367C295.259 380.346 285.099 381.331 275.28 383.781C271.279 384.778 266.958 385.904 263.746 388.28C259.763 391.226 254.192 388.942 250.946 393.086C243.929 391.34 237.616 394.736 231 395.868C224.111 397.045 217.122 397.463 210.429 400.051C206.505 401.569 201.841 402.457 197.745 401.897C193.183 401.275 189.121 402.795 184.904 402.853C176.239 402.973 167.416 404.334 158.871 401.507C158.188 401.281 157.4 401.191 156.684 401.263C142.004 402.757 142.005 402.765 128.524 397.422C120.664 398.726 117.761 389.371 110.573 388.971C109.669 388.92 108.828 386.787 108.058 385.555C107.115 384.043 106.268 382.472 105.399 380.916C105.055 380.302 104.331 379.492 104.504 379.058C107.023 372.689 104.978 365.055 109.94 359.376C110.418 358.825 111.011 358.211 111.145 357.544C112.007 353.255 114.33 350.187 117.772 347.405C123.32 342.919 128.355 337.797 133.621 332.959C136.217 330.576 140.782 330.965 142.173 326.88C148.466 329.077 151.007 320.295 157.054 321.78C160.693 316.218 167.539 317.592 172.552 314.747C176.207 312.672 181.193 313.067 185.485 311.961C189.173 311.012 192.712 309.499 197.385 307.859C197.903 308.095 199.627 308.881 201.351 309.666C201.312 309.264 201.276 308.862 201.241 308.46C204.559 307.485 207.84 305.909 211.209 305.684C215.594 305.391 219.885 304.965 224.242 304.334C228.696 303.687 233.418 305.13 238.038 305.353C243.471 305.617 248.943 305.26 254.354 305.7C261.093 306.244 267.813 306.513 274.374 309.17C277.067 310.259 280.723 309.997 283.768 311.283C285.096 311.845 286.502 312.248 287.779 312.904C296.155 317.207 305.384 319.501 313.521 324.583C316.477 326.431 316.793 328.085 316.926 330.757C325.095 329.977 324.647 340.258 334.503 341.371C339.288 340.619 347.089 338.67 354.177 334.398C354.586 334.15 355.092 334.03 355.57 333.922C359.564 333.011 364.037 332.944 367.422 330.984C370.761 329.055 373.507 326.403 377.668 325.991C379.18 325.839 380.718 324.543 381.972 323.454C384.534 321.232 386.88 319.733 390.738 319.377C394.642 319.018 398.377 315.908 401.999 313.694C405.028 311.842 407.795 309.557 410.646 307.419C411.003 307.152 411.261 306.232 411.395 306.267C416.874 307.704 418.655 301.61 423.078 300.448C425.395 299.839 426.941 296.285 429.245 293.575C432.891 296.156 435.49 292.881 438.356 290.29C440.329 288.507 442.482 286.911 444.355 285.034C445.65 283.735 446.554 282.059 447.723 280.627C448.591 279.561 449.426 278.269 450.582 277.67C456.659 274.518 462.646 271.601 463.697 263.518C463.953 261.554 466.459 259.635 468.307 258.167C476.213 251.883 480.294 244.103 478.83 233.758C478.573 231.947 478.599 229.5 479.602 228.209C483.441 223.265 480.433 217.898 480.414 212.971C480.399 208.891 476.667 204.832 474.616 200.747C473.957 199.438 472.95 198.088 472.903 196.73C472.785 193.264 470.286 191.764 468.204 189.704C466.595 188.112 465.825 185.692 464.274 184.019C460.019 179.432 455.869 174.635 450.99 170.804C449.332 169.502 446.605 169.206 445.206 167.005C444.957 166.612 444.419 166.065 444.095 166.113C436.975 167.173 433.471 160.467 427.763 158.546C427.317 158.396 426.812 158.425 425.624 158.289C422.078 163.934 418.424 169.895 414.615 175.75C412.41 179.132 409.814 182.261 407.646 185.666C405.694 188.734 404.541 192.409 402.224 195.122C398.098 199.954 393.371 204.268 388.869 208.775C388 209.645 386.374 210.267 386.181 211.223C385.062 216.78 379.856 217.827 376.3 220.685C375.383 221.423 374.085 222.275 373.906 223.247C372.875 228.868 367.749 230.689 364.173 233.777C360.56 236.896 356.932 240.13 351.869 241.382C348.996 242.09 346.486 244.495 343.957 246.335C340.115 249.125 336.785 252.732 331.553 253.029C330.437 253.092 329.4 254.121 328.285 254.606C322.583 257.089 317.53 261.554 310.642 260.439C303.07 265.702 292.766 263.215 285.45 269.338C284.614 270.038 282.97 270.432 281.958 270.124C279.608 269.407 277.501 267.71 275.135 267.276C272.668 266.823 269.933 267.838 267.461 267.397C263.902 266.757 260.496 264.599 256.981 264.487C250.255 264.273 244.711 262.448 239.297 258.154C234.247 254.15 228.896 250.678 224.091 246.179C219.566 241.942 219.88 236.382 217.338 231.754C216.068 229.438 215.184 226.867 214.424 224.322C213.529 221.32 211.577 218.731 214.233 215.001C215.934 212.615 214.953 208.349 215.28 204.935C215.554 202.079 216.288 199.54 217.643 196.777C221.382 189.164 224.519 181.309 230.35 174.913C231.018 174.18 230.753 172.663 231.165 171.605C231.606 170.476 232.632 168.467 232.9 168.547C236.925 169.742 237.859 166.751 239.357 164.244C239.922 163.302 241.158 162.206 242.13 162.162C246.062 161.988 247.98 159.166 250.492 156.82C253.592 153.927 256.013 149.742 261.156 149.796C261.752 149.802 262.623 149.191 262.917 148.63C265.33 144.039 269.994 143.963 274.148 142.632C277.609 141.522 281.284 140.243 284.044 138.019C286.96 135.668 289.086 132.554 293.477 134.035C293.862 134.166 294.59 134.011 294.833 133.717C299.406 128.154 306.208 129.552 312.083 128.341C320.093 126.69 328.228 125.62 336.339 124.52C338.942 124.167 341.643 124.602 344.292 124.51C346.308 124.44 348.253 125.753 350.441 123.687C351.495 122.692 354.527 123.808 356.665 123.955C360.99 124.25 364.682 126.692 369.841 124.582C373.743 122.987 379.4 125.684 384.272 126.484C389.047 127.269 393.804 128.186 398.598 128.834C403.39 129.483 408.379 129.316 412.206 133.019C415.39 132.471 416.803 130.55 417.492 127.597C419.1 120.703 421.003 113.88 422.62 106.989C423.584 102.875 423.308 98.4419 426.21 94.8555C426.712 94.2366 426.798 92.713 426.388 92.0117C423.874 87.713 427.805 84.5087 428.692 81.0244C429.34 78.4753 430.326 76.8113 429.328 73.9164C428.373 71.1472 428.477 67.6502 429.189 64.7357C430.949 57.5415 431.016 50.5073 429.393 43.3045C428.813 40.7405 429.196 37.9624 429.111 35.2838C428.901 28.6549 427.565 22.259 425.791 15.8588C423.809 8.69817 427.53 2.47008 434.409 0.385892C435.282 0.122926 436.721 0.0395274 437.232 0.546698C442.027 5.30406 448.778 8.20662 447.541 17.5637C446.659 24.2617 449.184 31.4139 450.206 38.3627C450.313 39.0859 450.928 40.1294 450.648 40.4583C447.133 44.5702 449.115 49.3965 449.569 53.5774C450.488 62.0514 447.885 70.5353 450.143 78.937C450.496 80.2455 450.18 81.8496 449.803 83.214C448.127 89.2798 446.169 95.269 444.606 101.361C443.478 105.758 442.478 110.237 442.015 114.741C441.362 121.101 440.159 126.989 436.039 132.272C432.765 136.469 435.047 142.534 440.348 144.124C445.618 145.704 450.585 147.444 454.151 151.911C454.428 152.259 454.986 152.465 455.45 152.565C459.004 153.326 461.722 155.041 464.057 158.04C466.347 160.981 469.542 163.222 472.388 165.713C473.63 166.8 474.874 168.006 476.335 168.698C478.848 169.893 480.834 171.028 481.67 174.188C482.15 175.996 484.698 177.252 486.51 178.938Z" fill="black"/>
</svg>
