<svg width="646" height="183" viewBox="0 0 646 183" fill="none" xmlns="http://www.w3.org/2000/svg">
<path d="M372.605 54.2734C361.791 25.7114 332.78 11.4294 298.593 17.8274C282.246 21.2514 266.871 27.8934 253.5 37.3074C249.936 39.3304 247.155 42.3574 245.558 45.9514C243.961 49.5464 243.631 53.5203 244.617 57.3013C248.691 81.4074 242.288 103.773 228.993 124.252C224.17 131.811 217.788 138.403 210.215 143.646C194.531 154.157 179.581 147.131 179.336 129.222C179.417 119.931 181.136 110.716 184.422 101.944C191.284 83.0364 203.445 66.8984 217.628 52.0174C229.085 39.9354 228.596 34.5934 215.086 23.9114C197.012 9.63037 175.477 7.85936 153.573 11.9434C139.935 14.4334 126.722 18.6414 114.301 24.4534C73.1095 43.6544 39.6331 74.6974 18.8157 112.998C12.352 124.737 9.04369 137.991 2.85568 154.386C1.38526 147.445 -0.514454 143.674 0.128855 140.333C1.24126 132.631 3.38204 125.089 6.50091 117.883C31.6512 65.8704 72.1487 28.4534 129.495 7.71636C146.533 1.06336 165.133 -1.34863 183.472 0.718373C205.59 3.57537 216.526 10.0584 238.613 32.3944C243.361 29.5384 248.263 26.3964 253.286 23.4544C271.973 12.4864 291.67 5.28837 314.37 5.31737C341.083 5.31737 361.576 15.2564 376.77 35.3654L384.031 44.8764L398.521 36.9364C415.584 27.5964 433.535 21.3694 453.661 21.3414C476.943 21.3414 495.875 29.1664 509.875 46.7614C511.835 49.2174 513.979 51.5604 516.522 54.5594C521.362 52.5884 525.896 50.8174 530.338 48.8464C549.072 40.6514 569.887 37.4964 590.441 39.7354C597.696 40.2584 604.706 42.4164 610.869 46.0234C617.033 49.6304 622.164 54.5784 625.823 60.4434C643.253 87.8634 643.499 118.34 645.153 148.473L641.048 149.587C639.373 146.266 637.98 142.828 636.882 139.305C633.42 123.567 631.061 107.571 626.834 92.0334C616.664 54.5884 599.049 44.3334 554.906 53.4164C543.817 55.7014 533.462 61.0714 521.944 65.3274C523.598 73.6104 525.007 80.1224 526.171 86.6634C530.123 108.714 528.224 130.479 517.624 150.472C511.785 160.378 504.218 169.307 495.232 176.893C491.752 180 487.332 182.036 482.571 182.725C477.81 183.415 472.937 182.725 468.61 180.749C458.777 176.693 456.357 168.038 455.99 158.727C455.163 132.106 466.252 109.114 481.722 87.7204C488.185 78.7804 496.426 70.9254 503.809 62.6144C499.643 52.1064 491.535 43.3624 480.986 38.0014C470.437 32.6394 458.16 31.0234 446.432 33.4514C431.482 36.3074 417.207 42.8204 403.054 48.5614C392.67 52.7604 388.718 60.6144 391.169 71.4114C395.059 88.5494 392.486 105.543 387.217 122.11C382.745 136.191 375.637 149.101 363.445 158.927C356.859 164.24 349.415 167.953 340.531 165.011C330.728 161.812 327.175 153.585 327.297 145.188C327.406 135.898 328.817 126.66 331.494 117.711C337.566 98.7394 347.94 81.2064 361.914 66.2984C365.406 62.4424 368.898 58.4444 372.605 54.2734ZM511.712 78.4664C510.071 78.3614 508.422 78.4674 506.811 78.7804C505.332 79.5204 503.997 80.4854 502.859 81.6364C484.564 99.9734 472.59 123.008 468.488 147.759C467.202 155.5 464.72 164.896 474.615 170.18C480.742 173.522 490.575 169.41 498.295 159.384C517.38 134.449 518.911 107.086 511.866 78.4664H511.712ZM377.567 71.2404C349.169 91.8334 332.566 136.191 345.678 154.071C370.95 145.931 385.807 108.571 377.567 71.2114V71.2404ZM232.271 55.2164C212.727 73.4104 200.198 91.8904 192.907 113.37C191.443 117.246 190.779 121.345 190.947 125.451C191.283 129.136 192.723 134.62 195.419 135.734C198.115 136.848 203.476 134.592 207.275 132.878C209.663 131.577 211.697 129.778 213.217 127.622C230.25 107.171 236.652 84.0924 232.271 55.2164Z" fill="#E9CDFF"/>
</svg>
