<svg width="1109" height="453" viewBox="0 0 1109 453" fill="none" xmlns="http://www.w3.org/2000/svg">
<path d="M467.067 103.654C472.473 104.536 477.928 105.13 483.407 105.435C518.206 105.01 540.458 122.405 553.953 150.532C560.313 163.037 564.445 176.437 566.184 190.2C568.939 218.495 569.119 247.005 570.112 275.429C570.969 299.187 570.609 323.029 572.279 346.744C574.672 380.388 594.847 401.895 627.886 413.222C667.335 426.502 708.002 428.115 749.167 423.151C815.607 415.133 871.981 387.472 921.586 345.769C974.89 300.885 1011.5 244.8 1049.41 183.795C1032.98 185.872 1025.44 194.696 1015.78 199.067C1007.03 203.012 998.407 208.145 989.109 209.841C984.594 210.648 976.697 206.108 973.717 201.865C971.46 198.64 973.175 191.345 975.703 187.23C979.093 182.909 983.416 179.309 988.387 176.665C1016.64 158.211 1044.94 139.756 1073.38 121.514C1082.68 115.575 1091.79 107.897 1108.18 115.107C1109.02 124.113 1109.02 133.171 1108.18 142.176C1102.44 177.09 1095.72 211.835 1089.36 246.666C1086.38 263.041 1085.34 280.053 1070.9 295.623C1054.2 275.174 1058.75 252.435 1056 225.496C1047.38 238.987 1041.65 247.811 1035.96 256.721C996.602 318.532 946.365 370.672 880.061 407.708C809.976 447.833 726.31 461.478 645.94 445.889C632.3 443.252 619.012 439.212 606.311 433.841C572.189 419.799 550.434 394.854 546.506 360.278C543.339 328.168 542.494 295.895 543.979 263.677C544.881 232.665 543.573 202.078 535.178 172.085C530.935 156.939 522.809 143.448 507.78 135.09C482.367 120.92 467.157 127.453 461.154 154.309C439.624 254.089 385.01 335.247 302.637 400.369C280.564 417.805 256.417 432.314 227.666 438.55C192.64 446.143 167.996 425.823 175.082 392.817C179.18 372.42 186.577 352.732 197.018 334.441C251.181 243.441 322.812 167.502 422.698 118.588C435.109 112.521 438.677 105.139 437.097 93.1323C431.861 52.1082 402.386 26.2297 358.515 24.5336C329.733 23.9151 301.206 29.7311 275.284 41.5035C213.087 68.0178 161 107.642 114.239 153.587C74.5198 192.618 38.6364 234.618 12.4576 283.279C11.1742 285.467 9.39225 287.362 7.23872 288.83C5.08519 290.297 2.61316 291.299 0 291.763C0.208774 286.122 1.13356 280.524 2.75377 275.089C7.73354 262.868 13.6777 251.013 20.537 239.623C69.645 161.563 133.376 96.0603 214.034 45.9561C245.63 26.3562 279.301 10.0238 316.944 3.53211C335.369 0.0220402 354.25 -0.878878 372.957 0.860562C417.1 5.99399 445.626 30.5575 458.717 70.3931C462.147 80.66 464.042 91.308 467.067 103.654ZM436.374 145.4L431.409 141.58C420.938 147.138 409.926 151.975 399.815 158.339C325.818 206.031 264.715 269.332 221.392 343.18C212.893 358.099 206.373 373.944 201.983 390.357C195.89 411.569 206.496 421.327 227.936 412.586C248.981 404.286 268.723 393.324 286.613 380.005C354.986 327.378 404.532 256.302 428.566 176.369C432.086 166.23 433.937 155.709 436.374 145.4Z" fill="#ECB37E"/>
</svg>
